<mxfile host="app.diagrams.net" modified="2023-05-15T19:25:33.023Z" agent="Mozilla/5.0 (Windows NT 10.0; Win64; x64) AppleWebKit/537.36 (KHTML, like Gecko) Chrome/113.0.0.0 Safari/537.36" etag="mHaAWREmk5LY_FKNyi8R" version="21.2.9" type="github">
  <diagram name="Page-1" id="2c0d36ab-eaac-3732-788b-9136903baeff">
    <mxGraphModel dx="2287" dy="1393" grid="1" gridSize="10" guides="1" tooltips="1" connect="1" arrows="1" fold="1" page="1" pageScale="1.5" pageWidth="1169" pageHeight="827" background="none" math="0" shadow="0">
      <root>
        <mxCell id="0" />
        <mxCell id="1" parent="0" />
        <mxCell id="U0bMkkJCJic2FTSLNyVx-150" value="" style="fillColor=#F2931E;strokeColor=none;opacity=30;" parent="1" vertex="1">
          <mxGeometry x="1549" y="446" width="197" height="304" as="geometry" />
        </mxCell>
        <mxCell id="U0bMkkJCJic2FTSLNyVx-144" value="" style="fillColor=#F2931E;strokeColor=none;opacity=30;" parent="1" vertex="1">
          <mxGeometry x="1322" y="446" width="220" height="324" as="geometry" />
        </mxCell>
        <mxCell id="U0bMkkJCJic2FTSLNyVx-142" value="" style="fillColor=#F2931E;strokeColor=none;opacity=30;" parent="1" vertex="1">
          <mxGeometry x="1064" y="445.5" width="243" height="454.5" as="geometry" />
        </mxCell>
        <mxCell id="123" value="" style="fillColor=#AE4132;strokeColor=none;opacity=30;" parent="1" vertex="1">
          <mxGeometry x="674" y="175.50000000000003" width="210" height="99.99999999999994" as="geometry" />
        </mxCell>
        <mxCell id="122" value="" style="fillColor=#10739E;strokeColor=none;opacity=30;" parent="1" vertex="1">
          <mxGeometry x="17" y="325.5" width="1723" height="100" as="geometry" />
        </mxCell>
        <mxCell id="120" value="" style="fillColor=#F2931E;strokeColor=none;opacity=30;" parent="1" vertex="1">
          <mxGeometry x="829" y="445" width="220" height="245" as="geometry" />
        </mxCell>
        <mxCell id="119" value="" style="fillColor=#F2931E;strokeColor=none;opacity=30;" parent="1" vertex="1">
          <mxGeometry x="618" y="445" width="200" height="175" as="geometry" />
        </mxCell>
        <mxCell id="118" value="" style="fillColor=#F2931E;strokeColor=none;opacity=30;" parent="1" vertex="1">
          <mxGeometry x="97" y="445.5" width="207" height="244.5" as="geometry" />
        </mxCell>
        <mxCell id="117" value="" style="fillColor=#F2931E;strokeColor=none;opacity=30;" parent="1" vertex="1">
          <mxGeometry x="320" y="446" width="250" height="354" as="geometry" />
        </mxCell>
        <mxCell id="U0bMkkJCJic2FTSLNyVx-124" style="edgeStyle=orthogonalEdgeStyle;rounded=0;orthogonalLoop=1;jettySize=auto;html=1;entryX=0.5;entryY=0;entryDx=0;entryDy=0;" parent="1" source="2" target="U0bMkkJCJic2FTSLNyVx-123" edge="1">
          <mxGeometry relative="1" as="geometry">
            <Array as="points">
              <mxPoint x="779" y="300" />
              <mxPoint x="718" y="300" />
            </Array>
          </mxGeometry>
        </mxCell>
        <mxCell id="U0bMkkJCJic2FTSLNyVx-134" style="edgeStyle=orthogonalEdgeStyle;rounded=0;orthogonalLoop=1;jettySize=auto;html=1;entryX=0.5;entryY=0;entryDx=0;entryDy=0;endArrow=block;endFill=1;" parent="1" source="2" target="10" edge="1">
          <mxGeometry relative="1" as="geometry">
            <Array as="points">
              <mxPoint x="779" y="300" />
              <mxPoint x="941" y="300" />
            </Array>
          </mxGeometry>
        </mxCell>
        <mxCell id="U0bMkkJCJic2FTSLNyVx-136" style="edgeStyle=orthogonalEdgeStyle;rounded=0;orthogonalLoop=1;jettySize=auto;html=1;entryX=0.531;entryY=0.021;entryDx=0;entryDy=0;endArrow=block;endFill=1;shadow=0;entryPerimeter=0;" parent="1" source="2" target="U0bMkkJCJic2FTSLNyVx-135" edge="1">
          <mxGeometry relative="1" as="geometry">
            <Array as="points">
              <mxPoint x="779" y="300" />
              <mxPoint x="1437" y="300" />
            </Array>
          </mxGeometry>
        </mxCell>
        <mxCell id="U0bMkkJCJic2FTSLNyVx-137" style="edgeStyle=orthogonalEdgeStyle;rounded=0;sketch=0;orthogonalLoop=1;jettySize=auto;html=1;entryX=0.5;entryY=0;entryDx=0;entryDy=0;shadow=0;endArrow=block;endFill=1;" parent="1" source="2" target="4" edge="1">
          <mxGeometry relative="1" as="geometry">
            <Array as="points">
              <mxPoint x="779" y="300" />
              <mxPoint x="1192" y="300" />
            </Array>
          </mxGeometry>
        </mxCell>
        <mxCell id="U0bMkkJCJic2FTSLNyVx-140" style="edgeStyle=orthogonalEdgeStyle;rounded=0;sketch=0;orthogonalLoop=1;jettySize=auto;html=1;entryX=0.5;entryY=0;entryDx=0;entryDy=0;shadow=0;endArrow=block;endFill=1;" parent="1" source="2" target="13" edge="1">
          <mxGeometry relative="1" as="geometry">
            <Array as="points">
              <mxPoint x="779" y="300" />
              <mxPoint x="129" y="300" />
            </Array>
          </mxGeometry>
        </mxCell>
        <mxCell id="U0bMkkJCJic2FTSLNyVx-141" style="edgeStyle=orthogonalEdgeStyle;rounded=0;sketch=0;orthogonalLoop=1;jettySize=auto;html=1;entryX=0.5;entryY=0;entryDx=0;entryDy=0;shadow=0;endArrow=block;endFill=1;" parent="1" source="2" target="12" edge="1">
          <mxGeometry relative="1" as="geometry">
            <Array as="points">
              <mxPoint x="779" y="300" />
              <mxPoint x="445" y="300" />
            </Array>
          </mxGeometry>
        </mxCell>
        <mxCell id="U0bMkkJCJic2FTSLNyVx-146" style="edgeStyle=orthogonalEdgeStyle;rounded=0;sketch=0;orthogonalLoop=1;jettySize=auto;html=1;entryX=0.5;entryY=0;entryDx=0;entryDy=0;shadow=0;endArrow=block;endFill=1;" parent="1" source="2" target="U0bMkkJCJic2FTSLNyVx-145" edge="1">
          <mxGeometry relative="1" as="geometry">
            <Array as="points">
              <mxPoint x="779" y="300" />
              <mxPoint x="1640" y="300" />
            </Array>
          </mxGeometry>
        </mxCell>
        <mxCell id="2" value="Главная страница" style="rounded=1;fillColor=#23445D;gradientColor=none;strokeColor=none;fontColor=#FFFFFF;fontStyle=1;fontFamily=Tahoma;fontSize=14;verticalAlign=middle;spacing=3;" parent="1" vertex="1">
          <mxGeometry x="684" y="185.5" width="190" height="80" as="geometry" />
        </mxCell>
        <mxCell id="4" value="Контакты" style="rounded=1;fillColor=#23445D;gradientColor=none;strokeColor=none;fontColor=#FFFFFF;fontStyle=1;fontFamily=Tahoma;fontSize=14" parent="1" vertex="1">
          <mxGeometry x="1096.9999999999998" y="335.5" width="190" height="80" as="geometry" />
        </mxCell>
        <mxCell id="10" value="Ресторан" style="rounded=1;fillColor=#23445D;gradientColor=none;strokeColor=none;fontColor=#FFFFFF;fontStyle=1;fontFamily=Tahoma;fontSize=14" parent="1" vertex="1">
          <mxGeometry x="846.25" y="335.5" width="190" height="80" as="geometry" />
        </mxCell>
        <mxCell id="12" value="Для бизнеса" style="rounded=1;fillColor=#23445D;gradientColor=none;strokeColor=none;fontColor=#FFFFFF;fontStyle=1;fontFamily=Tahoma;fontSize=14" parent="1" vertex="1">
          <mxGeometry x="349.9999999999999" y="335.5" width="190" height="80" as="geometry" />
        </mxCell>
        <mxCell id="13" value="Номера" style="rounded=1;fillColor=#23445D;gradientColor=none;strokeColor=none;fontColor=#FFFFFF;fontStyle=1;fontFamily=Tahoma;fontSize=14" parent="1" vertex="1">
          <mxGeometry x="34" y="335.5" width="190" height="80" as="geometry" />
        </mxCell>
        <mxCell id="16" value="Фотогалерея номеров" style="rounded=1;fillColor=#23445D;gradientColor=none;strokeColor=none;fontColor=#FFFFFF;fontStyle=1;fontFamily=Tahoma;fontSize=14" parent="1" vertex="1">
          <mxGeometry x="112" y="455.5" width="187" height="60" as="geometry" />
        </mxCell>
        <mxCell id="17" value="Цены и бронирование" style="rounded=1;fillColor=#23445D;gradientColor=none;strokeColor=none;fontColor=#FFFFFF;fontStyle=1;fontFamily=Tahoma;fontSize=14" parent="1" vertex="1">
          <mxGeometry x="111" y="545.5" width="187" height="60" as="geometry" />
        </mxCell>
        <mxCell id="19" value="Форма бронирования&#xa;для выбранного номера" style="rounded=1;fillColor=#23445D;gradientColor=none;strokeColor=none;fontColor=#FFFFFF;fontStyle=1;fontFamily=Tahoma;fontSize=14" parent="1" vertex="1">
          <mxGeometry x="112" y="619.5" width="187" height="60" as="geometry" />
        </mxCell>
        <mxCell id="25" value="Конференц-залы" style="rounded=1;fillColor=#23445D;gradientColor=none;strokeColor=none;fontColor=#FFFFFF;fontStyle=1;fontFamily=Tahoma;fontSize=14" parent="1" vertex="1">
          <mxGeometry x="328.5" y="455.5" width="231.5" height="60" as="geometry" />
        </mxCell>
        <mxCell id="26" value="Бизнес-услуги" style="rounded=1;fillColor=#23445D;gradientColor=none;strokeColor=none;fontColor=#FFFFFF;fontStyle=1;fontFamily=Tahoma;fontSize=14" parent="1" vertex="1">
          <mxGeometry x="327" y="545.5" width="233" height="60" as="geometry" />
        </mxCell>
        <mxCell id="27" value="Организация мероприятий" style="rounded=1;fillColor=#23445D;gradientColor=none;strokeColor=none;fontColor=#FFFFFF;fontStyle=1;fontFamily=Tahoma;fontSize=14" parent="1" vertex="1">
          <mxGeometry x="327" y="635.5" width="233" height="60" as="geometry" />
        </mxCell>
        <mxCell id="28" value="Заявка на проведение &#xa;мероприятия" style="rounded=1;fillColor=#23445D;gradientColor=none;strokeColor=none;fontColor=#FFFFFF;fontStyle=1;fontFamily=Tahoma;fontSize=14" parent="1" vertex="1">
          <mxGeometry x="327" y="725.5" width="233" height="60" as="geometry" />
        </mxCell>
        <mxCell id="33" value="Банкетные услуги" style="rounded=1;fillColor=#23445D;gradientColor=none;strokeColor=none;fontColor=#FFFFFF;fontStyle=1;fontFamily=Tahoma;fontSize=14" parent="1" vertex="1">
          <mxGeometry x="628" y="455.5" width="180" height="60" as="geometry" />
        </mxCell>
        <mxCell id="34" value="Заявка на банкет" style="rounded=1;fillColor=#23445D;gradientColor=none;strokeColor=none;fontColor=#FFFFFF;fontStyle=1;fontFamily=Tahoma;fontSize=14" parent="1" vertex="1">
          <mxGeometry x="629" y="545.5" width="179" height="60" as="geometry" />
        </mxCell>
        <mxCell id="U0bMkkJCJic2FTSLNyVx-129" value="" style="edgeStyle=orthogonalEdgeStyle;rounded=0;orthogonalLoop=1;jettySize=auto;html=1;" parent="1" source="41" target="42" edge="1">
          <mxGeometry relative="1" as="geometry" />
        </mxCell>
        <mxCell id="U0bMkkJCJic2FTSLNyVx-132" style="edgeStyle=orthogonalEdgeStyle;rounded=0;orthogonalLoop=1;jettySize=auto;html=1;exitX=0;exitY=0.5;exitDx=0;exitDy=0;entryX=0;entryY=0.5;entryDx=0;entryDy=0;endArrow=block;endFill=1;" parent="1" source="41" target="42" edge="1">
          <mxGeometry relative="1" as="geometry">
            <Array as="points">
              <mxPoint x="820" y="486" />
              <mxPoint x="820" y="573" />
            </Array>
          </mxGeometry>
        </mxCell>
        <mxCell id="zARUB0gmrqgYZmoli7jP-126" style="edgeStyle=orthogonalEdgeStyle;rounded=0;orthogonalLoop=1;jettySize=auto;html=1;exitX=0;exitY=0.5;exitDx=0;exitDy=0;entryX=0;entryY=0.5;entryDx=0;entryDy=0;" edge="1" parent="1" source="41" target="zARUB0gmrqgYZmoli7jP-124">
          <mxGeometry relative="1" as="geometry">
            <Array as="points">
              <mxPoint x="820" y="486" />
              <mxPoint x="820" y="645" />
            </Array>
          </mxGeometry>
        </mxCell>
        <mxCell id="41" value="Ресторанное меню" style="rounded=1;fillColor=#23445D;gradientColor=none;strokeColor=none;fontColor=#FFFFFF;fontStyle=1;fontFamily=Tahoma;fontSize=14" parent="1" vertex="1">
          <mxGeometry x="839.5" y="455.5" width="203.5" height="60" as="geometry" />
        </mxCell>
        <mxCell id="zARUB0gmrqgYZmoli7jP-125" style="edgeStyle=orthogonalEdgeStyle;rounded=0;orthogonalLoop=1;jettySize=auto;html=1;exitX=0.5;exitY=1;exitDx=0;exitDy=0;entryX=0.5;entryY=0;entryDx=0;entryDy=0;" edge="1" parent="1" source="42" target="zARUB0gmrqgYZmoli7jP-124">
          <mxGeometry relative="1" as="geometry" />
        </mxCell>
        <mxCell id="42" value="Бар" style="rounded=1;fillColor=#23445D;gradientColor=none;strokeColor=none;fontColor=#FFFFFF;fontStyle=1;fontFamily=Tahoma;fontSize=14" parent="1" vertex="1">
          <mxGeometry x="839.5" y="545.5" width="204.25" height="54.5" as="geometry" />
        </mxCell>
        <mxCell id="44" value="Адрес отеля" style="rounded=1;fillColor=#23445D;gradientColor=none;strokeColor=none;fontColor=#FFFFFF;fontStyle=1;fontFamily=Tahoma;fontSize=14" parent="1" vertex="1">
          <mxGeometry x="1079" y="455.5" width="210" height="60" as="geometry" />
        </mxCell>
        <mxCell id="45" value="Телефон для общей связи" style="rounded=1;fillColor=#23445D;gradientColor=none;strokeColor=none;fontColor=#FFFFFF;fontStyle=1;fontFamily=Tahoma;fontSize=14" parent="1" vertex="1">
          <mxGeometry x="1079" y="542.75" width="213" height="60" as="geometry" />
        </mxCell>
        <mxCell id="46" value="Адрес электронной почты" style="rounded=1;fillColor=#23445D;gradientColor=none;strokeColor=none;fontColor=#FFFFFF;fontStyle=1;fontFamily=Tahoma;fontSize=14" parent="1" vertex="1">
          <mxGeometry x="1079" y="635.5" width="213" height="60" as="geometry" />
        </mxCell>
        <mxCell id="47" value="Форма обратной связи" style="rounded=1;fillColor=#23445D;gradientColor=none;strokeColor=none;fontColor=#FFFFFF;fontStyle=1;fontFamily=Tahoma;fontSize=14" parent="1" vertex="1">
          <mxGeometry x="1077.5" y="725.5" width="213" height="60" as="geometry" />
        </mxCell>
        <mxCell id="52" value="Спа-процедуры" style="rounded=1;fillColor=#23445D;gradientColor=none;strokeColor=none;fontColor=#FFFFFF;fontStyle=1;fontFamily=Tahoma;fontSize=14" parent="1" vertex="1">
          <mxGeometry x="1332" y="455.5" width="200" height="60" as="geometry" />
        </mxCell>
        <mxCell id="53" value="Фитнес-центр" style="rounded=1;fillColor=#23445D;gradientColor=none;strokeColor=none;fontColor=#FFFFFF;fontStyle=1;fontFamily=Tahoma;fontSize=14" parent="1" vertex="1">
          <mxGeometry x="1332" y="540" width="200" height="60" as="geometry" />
        </mxCell>
        <mxCell id="54" value="Бассейн" style="rounded=1;fillColor=#23445D;gradientColor=none;strokeColor=none;fontColor=#FFFFFF;fontStyle=1;fontFamily=Tahoma;fontSize=14" parent="1" vertex="1">
          <mxGeometry x="1332" y="620" width="200" height="60" as="geometry" />
        </mxCell>
        <mxCell id="64" value="" style="edgeStyle=elbowEdgeStyle;elbow=horizontal;strokeWidth=2;rounded=0" parent="1" edge="1">
          <mxGeometry x="-148" y="135.5" width="100" height="100" as="geometry">
            <mxPoint x="77" y="415.5" as="sourcePoint" />
            <mxPoint x="115" y="485.5" as="targetPoint" />
            <Array as="points">
              <mxPoint x="77" y="435.5" />
            </Array>
          </mxGeometry>
        </mxCell>
        <mxCell id="65" value="" style="edgeStyle=elbowEdgeStyle;elbow=horizontal;strokeWidth=2;rounded=0" parent="1" edge="1">
          <mxGeometry x="-148" y="135.5" width="100" height="100" as="geometry">
            <mxPoint x="77" y="415.5" as="sourcePoint" />
            <mxPoint x="112" y="575.5" as="targetPoint" />
            <Array as="points">
              <mxPoint x="77" y="475.5" />
            </Array>
          </mxGeometry>
        </mxCell>
        <mxCell id="70" value="" style="edgeStyle=elbowEdgeStyle;elbow=horizontal;strokeWidth=2;rounded=0" parent="1" target="26" edge="1">
          <mxGeometry x="-102" y="135.5" width="100" height="100" as="geometry">
            <mxPoint x="338" y="485.5" as="sourcePoint" />
            <mxPoint x="-2" y="135.5" as="targetPoint" />
            <Array as="points">
              <mxPoint x="310" y="540" />
              <mxPoint x="318" y="535.5" />
            </Array>
          </mxGeometry>
        </mxCell>
        <mxCell id="71" value="" style="edgeStyle=elbowEdgeStyle;elbow=horizontal;strokeWidth=2;rounded=0" parent="1" target="27" edge="1">
          <mxGeometry x="-102" y="135.5" width="100" height="100" as="geometry">
            <mxPoint x="338" y="485.5" as="sourcePoint" />
            <mxPoint x="-2" y="135.5" as="targetPoint" />
            <Array as="points">
              <mxPoint x="310" y="600" />
              <mxPoint x="318" y="575.5" />
            </Array>
          </mxGeometry>
        </mxCell>
        <mxCell id="72" value="" style="edgeStyle=elbowEdgeStyle;elbow=horizontal;strokeWidth=2;rounded=0;exitX=0;exitY=0.5;exitDx=0;exitDy=0;" parent="1" source="25" target="28" edge="1">
          <mxGeometry x="-102" y="135.5" width="100" height="100" as="geometry">
            <mxPoint x="338" y="485.5" as="sourcePoint" />
            <mxPoint x="-2" y="135.5" as="targetPoint" />
            <Array as="points">
              <mxPoint x="310" y="600" />
              <mxPoint x="318" y="615.5" />
            </Array>
          </mxGeometry>
        </mxCell>
        <mxCell id="76" value="" style="edgeStyle=elbowEdgeStyle;elbow=horizontal;strokeWidth=2;rounded=0" parent="1" edge="1">
          <mxGeometry x="-160" y="135.5" width="100" height="100" as="geometry">
            <mxPoint x="630" y="485.5" as="sourcePoint" />
            <mxPoint x="630" y="575.5" as="targetPoint" />
            <Array as="points">
              <mxPoint x="610" y="535.5" />
            </Array>
          </mxGeometry>
        </mxCell>
        <mxCell id="84" value="" style="edgeStyle=elbowEdgeStyle;elbow=horizontal;strokeWidth=2;rounded=0;entryX=0;entryY=0.5;entryDx=0;entryDy=0;exitX=0;exitY=0.5;exitDx=0;exitDy=0;" parent="1" source="44" target="45" edge="1">
          <mxGeometry x="-137" y="135.5" width="100" height="100" as="geometry">
            <mxPoint x="-137" y="235.5" as="sourcePoint" />
            <mxPoint x="-37" y="135.5" as="targetPoint" />
            <Array as="points">
              <mxPoint x="1060" y="530" />
            </Array>
          </mxGeometry>
        </mxCell>
        <mxCell id="85" value="" style="edgeStyle=elbowEdgeStyle;elbow=horizontal;strokeWidth=2;rounded=0;exitX=0;exitY=0.5;exitDx=0;exitDy=0;entryX=0;entryY=0.5;entryDx=0;entryDy=0;" parent="1" source="44" target="46" edge="1">
          <mxGeometry x="-137" y="135.5" width="100" height="100" as="geometry">
            <mxPoint x="-137" y="235.5" as="sourcePoint" />
            <mxPoint x="-37" y="135.5" as="targetPoint" />
            <Array as="points">
              <mxPoint x="1060" y="640" />
              <mxPoint x="1056" y="520" />
              <mxPoint x="1083" y="575.5" />
            </Array>
          </mxGeometry>
        </mxCell>
        <mxCell id="86" value="" style="edgeStyle=elbowEdgeStyle;elbow=horizontal;strokeWidth=2;rounded=0;exitX=0;exitY=0.5;exitDx=0;exitDy=0;" parent="1" source="44" target="47" edge="1">
          <mxGeometry x="-137" y="135.5" width="100" height="100" as="geometry">
            <mxPoint x="1079" y="490" as="sourcePoint" />
            <mxPoint x="-37" y="135.5" as="targetPoint" />
            <Array as="points">
              <mxPoint x="1060" y="690" />
              <mxPoint x="1056" y="486" />
              <mxPoint x="1056" y="510" />
              <mxPoint x="1083" y="625.5" />
            </Array>
          </mxGeometry>
        </mxCell>
        <mxCell id="90" value="" style="edgeStyle=elbowEdgeStyle;elbow=horizontal;strokeWidth=2;rounded=0;entryX=0;entryY=0.5;entryDx=0;entryDy=0;exitX=0;exitY=0.5;exitDx=0;exitDy=0;" parent="1" source="52" target="53" edge="1">
          <mxGeometry x="-223" y="135.5" width="100" height="100" as="geometry">
            <mxPoint x="1347" y="506" as="sourcePoint" />
            <mxPoint x="1367" y="576" as="targetPoint" />
            <Array as="points">
              <mxPoint x="1310" y="550" />
              <mxPoint x="1312" y="540" />
              <mxPoint x="1302" y="540" />
              <mxPoint x="1347" y="535.5" />
            </Array>
          </mxGeometry>
        </mxCell>
        <mxCell id="95" value="" style="edgeStyle=elbowEdgeStyle;elbow=horizontal;strokeWidth=2;rounded=0;exitX=0;exitY=0.5;exitDx=0;exitDy=0;entryX=0;entryY=0.5;entryDx=0;entryDy=0;" parent="1" source="52" target="54" edge="1">
          <mxGeometry x="-223" y="135.5" width="100" height="100" as="geometry">
            <mxPoint x="1370" y="475" as="sourcePoint" />
            <mxPoint x="1367" y="1025.5" as="targetPoint" />
            <Array as="points">
              <mxPoint x="1310" y="640" />
              <mxPoint x="1312" y="540" />
              <mxPoint x="1302" y="520" />
              <mxPoint x="1347" y="765.5" />
            </Array>
          </mxGeometry>
        </mxCell>
        <mxCell id="100" value="" style="edgeStyle=elbowEdgeStyle;elbow=vertical;strokeWidth=2;rounded=0" parent="1" source="12" target="25" edge="1">
          <mxGeometry x="-96" y="135.5" width="100" height="100" as="geometry">
            <mxPoint x="-96" y="235.5" as="sourcePoint" />
            <mxPoint x="4" y="135.5" as="targetPoint" />
          </mxGeometry>
        </mxCell>
        <mxCell id="102" value="" style="edgeStyle=elbowEdgeStyle;elbow=vertical;strokeWidth=2;rounded=0;exitX=0.5;exitY=1;exitDx=0;exitDy=0;entryX=0.5;entryY=0;entryDx=0;entryDy=0;" parent="1" source="U0bMkkJCJic2FTSLNyVx-123" target="33" edge="1">
          <mxGeometry x="-96" y="135.5" width="100" height="100" as="geometry">
            <mxPoint x="637" y="440" as="sourcePoint" />
            <mxPoint x="4" y="135.5" as="targetPoint" />
            <Array as="points" />
          </mxGeometry>
        </mxCell>
        <mxCell id="103" value="" style="edgeStyle=elbowEdgeStyle;elbow=vertical;strokeWidth=2;rounded=0" parent="1" source="10" target="41" edge="1">
          <mxGeometry x="-96" y="135.5" width="100" height="100" as="geometry">
            <mxPoint x="-96" y="235.5" as="sourcePoint" />
            <mxPoint x="4" y="135.5" as="targetPoint" />
          </mxGeometry>
        </mxCell>
        <mxCell id="105" value="" style="edgeStyle=elbowEdgeStyle;elbow=vertical;strokeWidth=2;rounded=0" parent="1" source="4" target="44" edge="1">
          <mxGeometry x="-96" y="135.5" width="100" height="100" as="geometry">
            <mxPoint x="-96" y="235.5" as="sourcePoint" />
            <mxPoint x="4" y="135.5" as="targetPoint" />
          </mxGeometry>
        </mxCell>
        <mxCell id="U0bMkkJCJic2FTSLNyVx-123" value="Банкетный зал" style="rounded=1;fillColor=#23445D;gradientColor=none;strokeColor=none;fontColor=#FFFFFF;fontStyle=1;fontFamily=Tahoma;fontSize=14" parent="1" vertex="1">
          <mxGeometry x="622.9999999999999" y="335.5" width="190" height="80" as="geometry" />
        </mxCell>
        <mxCell id="U0bMkkJCJic2FTSLNyVx-135" value="Зона SPA" style="rounded=1;fillColor=#23445D;gradientColor=none;strokeColor=none;fontColor=#FFFFFF;fontStyle=1;fontFamily=Tahoma;fontSize=14" parent="1" vertex="1">
          <mxGeometry x="1352" y="335.5" width="160" height="80" as="geometry" />
        </mxCell>
        <mxCell id="U0bMkkJCJic2FTSLNyVx-143" value="" style="edgeStyle=elbowEdgeStyle;elbow=vertical;strokeWidth=2;rounded=0;exitX=0.5;exitY=1;exitDx=0;exitDy=0;entryX=0.5;entryY=0;entryDx=0;entryDy=0;" parent="1" source="U0bMkkJCJic2FTSLNyVx-135" target="52" edge="1">
          <mxGeometry x="169" y="145.5" width="100" height="100" as="geometry">
            <mxPoint x="1457" y="425.5" as="sourcePoint" />
            <mxPoint x="1513.9999999999995" y="465.5" as="targetPoint" />
          </mxGeometry>
        </mxCell>
        <mxCell id="U0bMkkJCJic2FTSLNyVx-145" value="Спецпредложения" style="rounded=1;fillColor=#23445D;gradientColor=none;strokeColor=none;fontColor=#FFFFFF;fontStyle=1;fontFamily=Tahoma;fontSize=14" parent="1" vertex="1">
          <mxGeometry x="1550" y="335.5" width="180" height="80" as="geometry" />
        </mxCell>
        <mxCell id="U0bMkkJCJic2FTSLNyVx-147" value="Акции и скидки" style="rounded=1;fillColor=#23445D;gradientColor=none;strokeColor=none;fontColor=#FFFFFF;fontStyle=1;fontFamily=Tahoma;fontSize=14" parent="1" vertex="1">
          <mxGeometry x="1553" y="455.5" width="190" height="81.25" as="geometry" />
        </mxCell>
        <mxCell id="U0bMkkJCJic2FTSLNyVx-149" value="" style="edgeStyle=elbowEdgeStyle;elbow=vertical;strokeWidth=2;rounded=0;exitX=0.5;exitY=1;exitDx=0;exitDy=0;entryX=0.5;entryY=0;entryDx=0;entryDy=0;" parent="1" source="U0bMkkJCJic2FTSLNyVx-145" target="U0bMkkJCJic2FTSLNyVx-147" edge="1">
          <mxGeometry x="272" y="170" width="100" height="100" as="geometry">
            <mxPoint x="1563" y="440" as="sourcePoint" />
            <mxPoint x="1540" y="480" as="targetPoint" />
            <Array as="points">
              <mxPoint x="1650" y="430" />
              <mxPoint x="1643" y="444.5" />
            </Array>
          </mxGeometry>
        </mxCell>
        <mxCell id="U0bMkkJCJic2FTSLNyVx-151" value="" style="edgeStyle=elbowEdgeStyle;elbow=horizontal;strokeWidth=2;rounded=0;exitX=0;exitY=0.5;exitDx=0;exitDy=0;entryX=0;entryY=0.5;entryDx=0;entryDy=0;" parent="1" source="U0bMkkJCJic2FTSLNyVx-147" target="U0bMkkJCJic2FTSLNyVx-152" edge="1">
          <mxGeometry x="-6" y="310" width="100" height="100" as="geometry">
            <mxPoint x="1549" y="660" as="sourcePoint" />
            <mxPoint x="1549" y="824.5" as="targetPoint" />
            <Array as="points">
              <mxPoint x="1540" y="550" />
              <mxPoint x="1540" y="540" />
              <mxPoint x="1529" y="714.5" />
              <mxPoint x="1519" y="694.5" />
              <mxPoint x="1564" y="940" />
            </Array>
          </mxGeometry>
        </mxCell>
        <mxCell id="U0bMkkJCJic2FTSLNyVx-152" value="Специальные пакеты" style="rounded=1;fillColor=#23445D;gradientColor=none;strokeColor=none;fontColor=#FFFFFF;fontStyle=1;fontFamily=Tahoma;fontSize=14" parent="1" vertex="1">
          <mxGeometry x="1552.5" y="545.5" width="190" height="81.25" as="geometry" />
        </mxCell>
        <mxCell id="zARUB0gmrqgYZmoli7jP-123" style="edgeStyle=orthogonalEdgeStyle;rounded=0;orthogonalLoop=1;jettySize=auto;html=1;exitX=0.5;exitY=1;exitDx=0;exitDy=0;" edge="1" parent="1" source="119" target="119">
          <mxGeometry relative="1" as="geometry" />
        </mxCell>
        <mxCell id="zARUB0gmrqgYZmoli7jP-124" value="Резервирование столиков" style="rounded=1;fillColor=#23445D;gradientColor=none;strokeColor=none;fontColor=#FFFFFF;fontStyle=1;fontFamily=Tahoma;fontSize=14" vertex="1" parent="1">
          <mxGeometry x="838.75" y="620" width="204.25" height="50" as="geometry" />
        </mxCell>
        <mxCell id="zARUB0gmrqgYZmoli7jP-127" value="Ссылки на социальные сети" style="rounded=1;fillColor=#23445D;gradientColor=none;strokeColor=none;fontColor=#FFFFFF;fontStyle=1;fontFamily=Tahoma;fontSize=14" vertex="1" parent="1">
          <mxGeometry x="1077.5" y="820" width="213" height="60" as="geometry" />
        </mxCell>
        <mxCell id="zARUB0gmrqgYZmoli7jP-130" value="" style="edgeStyle=elbowEdgeStyle;elbow=horizontal;strokeWidth=2;rounded=0;exitX=0;exitY=0.5;exitDx=0;exitDy=0;entryX=0;entryY=0.5;entryDx=0;entryDy=0;" edge="1" parent="1" source="44" target="zARUB0gmrqgYZmoli7jP-127">
          <mxGeometry x="-127" y="145.5" width="100" height="100" as="geometry">
            <mxPoint x="1089" y="496" as="sourcePoint" />
            <mxPoint x="1088" y="766" as="targetPoint" />
            <Array as="points">
              <mxPoint x="1060" y="800" />
              <mxPoint x="1066" y="496" />
              <mxPoint x="1066" y="520" />
              <mxPoint x="1093" y="635.5" />
            </Array>
          </mxGeometry>
        </mxCell>
        <mxCell id="zARUB0gmrqgYZmoli7jP-131" value="Резервирование услуг" style="rounded=1;fillColor=#23445D;gradientColor=none;strokeColor=none;fontColor=#FFFFFF;fontStyle=1;fontFamily=Tahoma;fontSize=14" vertex="1" parent="1">
          <mxGeometry x="1332" y="695.5" width="200" height="60" as="geometry" />
        </mxCell>
        <mxCell id="zARUB0gmrqgYZmoli7jP-132" value="" style="edgeStyle=elbowEdgeStyle;elbow=horizontal;strokeWidth=2;rounded=0;exitX=0;exitY=0.5;exitDx=0;exitDy=0;entryX=0;entryY=0.5;entryDx=0;entryDy=0;" edge="1" parent="1" source="52" target="zARUB0gmrqgYZmoli7jP-131">
          <mxGeometry x="-213" y="145.5" width="100" height="100" as="geometry">
            <mxPoint x="1342" y="496" as="sourcePoint" />
            <mxPoint x="1342" y="660" as="targetPoint" />
            <Array as="points">
              <mxPoint x="1310" y="610" />
              <mxPoint x="1300" y="610" />
              <mxPoint x="1310" y="610" />
              <mxPoint x="1322" y="550" />
              <mxPoint x="1312" y="530" />
              <mxPoint x="1357" y="775.5" />
            </Array>
          </mxGeometry>
        </mxCell>
        <mxCell id="zARUB0gmrqgYZmoli7jP-133" value="Подписка на рассылку" style="rounded=1;fillColor=#23445D;gradientColor=none;strokeColor=none;fontColor=#FFFFFF;fontStyle=1;fontFamily=Tahoma;fontSize=14" vertex="1" parent="1">
          <mxGeometry x="1552.5" y="635.5" width="190" height="81.25" as="geometry" />
        </mxCell>
      </root>
    </mxGraphModel>
  </diagram>
</mxfile>
